<?xml version="1.0" encoding="utf-8"?>
<!-- Generator: Adobe Illustrator 26.0.1, SVG Export Plug-In . SVG Version: 6.00 Build 0)  -->
<svg version="1.1" id="Layer_1" xmlns="http://www.w3.org/2000/svg" xmlns:xlink="http://www.w3.org/1999/xlink" x="0px" y="0px"
	 viewBox="0 0 500.9 236.4" style="enable-background:new 0 0 500.9 236.4;" xml:space="preserve">
<style type="text/css">
	.st0{fill:#B91515;}
	.st1{fill:#FFFFFF;}
</style>
<path class="st0" d="M239.5,36.3c0.2-0.1,0.4-0.3,0.5-0.4c0.6-0.2,1.1-0.5,1.4-1c0.6-0.2,1.1-0.5,1.4-1c0.6-0.2,1.1-0.5,1.4-1
	c0.2-0.1,0.4-0.3,0.5-0.4c0.3-0.2,0.6-0.4,0.9-0.6c0.1,0,0.2,0,0.2-0.1c3.1-1.7,6.2-1.6,9.2,0.1c0.5,0.6,1.1,1.2,1.9,1.4
	c0.3,0.2,0.6,0.4,0.9,0.6c0.2,0.4,0.6,0.8,1.1,0.9c1.1,1.1,2.4,1.9,3.8,2.4c0.4,0.5,0.9,0.8,1.5,0.9c0.6,0.8,1.5,1.1,2.4,1.4
	c0.9,1,2.1,1.5,3.4,1.9c0.3,0.2,0.6,0.3,0.9,0.5c1.4,1.2,3,2,4.8,2.4c0.3,0.2,0.6,0.3,1,0.5c4.8,2.9,10.2,4.5,15.6,5.6
	c5,1.1,10.2,1.7,15.3,2.1c7.8,0.6,15.5-0.2,23.2-1.5c3.4-0.6,6.7-1.1,10.1-1.6c0.6-0.1,1.1-0.1,1.5-0.5l0.2-0.1
	c2.3,0.3,4.4-0.2,6.5-0.9h0.2c1.8,0.4,3.5-0.3,5.2-0.5c4.3-0.4,8.5-1.2,12.8-1.7c5.1-0.6,10.3-1.1,15.4-1.6
	c4.1-0.4,8.2-0.9,12.3-1.3c0.4,0,0.8-0.1,1.2-0.1c8-0.1,16-0.3,24,0.1c7,0.3,13.7,2.1,20.2,4.6c0.7,0.3,1.3,0.6,2,0.7
	c1.5,0.9,3.1,1.7,4.8,2.4c1.5,1.2,3.1,2.4,4.8,3.4c0.3,0.3,0.7,0.6,1,0.9c0.5,0.8,1.1,1.4,1.9,1.9c0.3,0.3,0.6,0.7,0.9,1
	c1.3,2.3,3,4.3,4.2,6.7c2.1,4.1,3,8.6,3.5,13.1c0.7,5.6,1.2,11.2,2.1,16.8c0.3,2.4,1.3,4.6,2.7,6.6c0.1,0.6,0.4,1.1,0.9,1.5
	c0.2,0.6,0.5,1.1,1,1.4c0.5,1.4,1.6,2.3,2.8,3c0.7,1.5,2.3,2.4,3.1,3.8c2.2,3.7,2.8,7.7,1.6,11.8c-0.1,0.5-0.2,0.9-0.3,1.4
	c-0.5,0.6-0.8,1.2-1,1.9c-0.2,0.3-0.4,0.6-0.5,0.9c-0.4,0.2-0.7,0.6-0.9,1c-0.2,0.2-0.3,0.3-0.5,0.5c-0.2,0.2-0.3,0.3-0.5,0.5
	c-1.5,0.8-2.6,1.9-3.4,3.4c-0.1,0.2-0.3,0.3-0.4,0.5c-0.5,0.3-0.9,0.8-1,1.4c-0.8,0.6-1.1,1.5-1.4,2.4c-1.9,2.7-2.3,5.9-2.7,9
	c-0.8,5.8-1.3,11.7-2.1,17.5c-0.4,2.9-1.4,5.7-2.7,8.4c-0.6,1.1-1.1,2.3-1.7,3.4c-0.5,0.4-0.8,0.8-1,1.4c-0.6,0.5-1.2,1.1-1.4,1.9
	c-0.1,0.2-0.3,0.3-0.4,0.5c-0.6,0.4-1.1,0.9-1.4,1.5c-0.4,0.2-0.8,0.5-1,1c-0.6,0.3-1.1,0.8-1.5,1.4c-0.2,0.1-0.3,0.3-0.5,0.4
	c-0.8,0.3-1.4,0.8-1.9,1.4c-0.6,0.1-1.1,0.5-1.4,0.9c-0.3,0.2-0.6,0.3-0.9,0.5c-3.2,1.4-6.4,2.9-9.6,4.3c-3.1,0.5-5.9,1.8-9,2.3
	c-3.5,0.6-6.9,1.3-10.4,1.2c-2.8-0.1-5.6,0.4-8.3,0.4c-7.5-0.1-14.9-0.4-22.4-1.2c-5.1-0.5-10.3-1-15.4-1.6
	c-5.8-0.7-11.5-1.4-17.3-2.2c-5.7-0.8-11.5-1.7-17.2-2.6c-4.9-0.8-9.9-1.8-14.9-2.2c-4.7-0.4-9.5-0.9-14.3-0.4
	c-4.4,0.4-8.9,0.8-13.3,1.6c-7.6,1.3-14.8,3.7-21.5,7.6c-0.3,0.2-0.6,0.3-1,0.5c-1.8,0.8-3.7,1.5-5.3,2.9c-1.2,0.5-2.4,0.9-3.3,2
	c-0.6,0.1-1.1,0.5-1.5,0.9c-0.8,0.3-1.6,0.6-2,1.4c-0.7,0.2-1.4,0.4-1.8,1.1c-0.9,0.2-1.4,0.8-1.9,1.4c-0.5,0.1-0.8,0.4-1.1,0.8
	c-0.3,0.2-0.6,0.4-0.9,0.6c-3.3,1.7-6.6,1.4-9.8-0.1c-0.6-0.9-1.5-1.4-2.5-1.8c-0.6-0.8-1.3-1.4-2.3-1.5c-0.2-0.1-0.4-0.3-0.5-0.4
	c-0.4-0.5-0.8-0.8-1.4-1c-0.9-0.9-2-1.7-3.3-2c-2.6-2.1-5.5-3.7-8.6-4.8c-4.5-2.8-9.4-4.7-14.5-6c-6.3-1.6-12.8-2.6-19.3-3.1
	c-7.7-0.6-15.3,0.3-22.8,1.5c-6.5,1-13.1,2-19.6,3c-5.7,0.8-11.5,1.7-17.3,2.3c-5.1,0.5-10.1,1.2-15.2,1.6c-7,0.6-13.9,1.3-21,1.5
	c-6.2,0.2-12.5,0.1-18.6-0.4c-7.1-0.5-14-2.5-20.5-5.5c-0.7-0.3-1.3-0.6-2-0.7c-0.3-0.2-0.6-0.3-1-0.5c-1.2-1-2.5-1.7-3.9-2.3
	c-0.3-0.5-0.8-0.9-1.4-1c-1.7-1.7-3.2-3.5-5.2-4.9c-0.2-0.3-0.4-0.6-0.6-0.8c-0.1-0.2-0.3-0.3-0.4-0.5c-0.2-0.6-0.5-1.1-1-1.4
	c-0.1-0.6-0.5-1.1-1-1.5c-0.1-0.2-0.3-0.4-0.4-0.5c-0.4-1.5-1.2-2.9-2-4.3c-1.8-5.8-2.3-11.8-3-17.8c-0.5-3.9-0.6-7.8-1.8-11.5
	c-0.4-1.2-0.7-2.3-1.4-3.3c-0.6-1.7-1.4-3.3-2.8-4.4c-0.2-0.3-0.4-0.6-0.6-0.8c-0.2-0.4-0.5-0.7-0.9-1c-0.2-0.2-0.3-0.3-0.5-0.5
	s-0.3-0.3-0.5-0.5c-0.9-1-1.9-1.9-2.8-2.9c-0.1-0.6-0.5-1.1-1-1.4c-2-4.4-2.1-8.8-0.5-13.3c0.7-0.6,1.1-1.5,1.4-2.4
	c0.1-0.2,0.3-0.3,0.4-0.5c0.9-0.7,1.7-1.5,2.4-2.4c0.2-0.2,0.3-0.3,0.5-0.5s0.3-0.3,0.5-0.5s0.3-0.3,0.5-0.5s0.3-0.3,0.5-0.5
	c0.2-0.3,0.4-0.6,0.6-0.8c0.4-0.2,0.8-0.6,0.9-1.1c1-0.9,1.5-2.1,1.9-3.4c1.5-1.9,1.8-4.3,2.2-6.5c0.7-4.3,1.1-8.7,1.6-13
	c0.6-5.8,1.3-11.6,4.4-16.7c0.8-1.4,1.6-2.7,2.4-4.1c0.5-0.3,0.8-0.8,1-1.4c2-1.3,3.5-3.2,5.2-4.9c1-0.4,1.9-1,2.5-1.8
	c1-0.3,2-0.7,2.8-1.5c0.3-0.2,0.6-0.3,1-0.5c2-0.8,4-1.5,6-2.3c5.1-1.9,10.3-3.2,15.8-3.7c9-0.8,18-0.4,27-0.3
	c3.9,0.1,7.7,0.9,11.6,1.2c3.7,0.2,7.3,0.8,10.9,1.1c3.2,0.3,6.5,0.7,9.7,1.1c5.4,0.7,10.9,1.5,16.3,2.3c5.6,0.8,11.2,1.8,16.7,2.6
	c3.5,0.5,6.9,1.1,10.4,1.3c3.3,0.2,6.5,0.5,9.8,0.3c8.7-0.3,17.2-1.8,25.6-4.3c0.6-0.2,1.2-0.4,1.7-0.8c1.2-0.2,2.3-0.7,3.4-1.4
	c2.4-0.6,4.5-1.9,6.6-3c1.7-0.8,3.5-1.5,4.9-2.8c1.2-0.5,2.4-0.9,3.3-1.9C236.5,37.9,239.2,36.4,239.5,36.3z M408.5,180.7
	c3,0,5.9,0,8.9,0c7.7-0.1,15-2,22-5.3c6.7-3.2,10.5-8.5,11.4-15.8c0.7-5.1,1.2-10.2,1.7-15.3c1.1-9.7,4.9-18,12.2-24.6
	c0.2-0.2,0.4-0.3,0.5-0.5c0.6-0.6,0.7-1.2,0.1-1.9c-0.5-0.4-0.9-0.9-1.4-1.3c-6-5.8-9.7-12.8-10.9-21.1c-0.8-5.8-1.4-11.6-2.1-17.4
	c-0.8-7.3-4.4-12.8-11-16.1c-5.3-2.7-10.9-4.6-16.9-5.2c-9-0.9-18-0.9-27.1-0.2c-10,0.8-20,1.9-30,3.1c-10.5,1.3-20.9,2.8-31.3,4.6
	c-14.7,2.6-29.4,2.8-44.1-0.4c-6.8-1.5-13.3-3.6-19.6-6.7c-6.5-3.2-12.9-6.8-18.9-10.9c-1.2-0.9-2.1-0.9-3.4,0
	c-2.1,1.5-4.4,2.9-6.6,4.3c-7.5,4.5-15.3,8.6-23.8,11.2c-6,1.8-12.1,3-18.3,3.7c-8.1,1-16.3,1-24.4,0c-4.5-0.5-9-1.3-13.5-2
	c-0.6-0.1-5.4-0.8-6.5-1c-13.6-2-27.2-3.7-40.9-5.1C104,55.9,93.2,55.4,82.4,56c-7.7,0.4-15,2.2-21.8,5.8C54.5,65,51,70.1,50.1,76.9
	c-0.8,5.7-1.3,11.4-2,17.2c-0.8,6.4-3.1,12.2-7,17.4c-1.3,1.8-2.8,3.5-4.5,5c-2,1.9-2,1.9,0.1,3.9c6,5.7,9.8,12.6,11,20.8
	c0.6,4,1.4,8.1,1.6,12.2c0.1,2.3,0.4,4.6,0.8,6.9c1.1,6.7,4.6,11.8,10.8,14.9c3.8,1.9,7.8,3.3,11.9,4.3c6.9,1.7,14,1.5,21,1.6
	c9.4,0.1,18.7-1.1,28-2.1c13.1-1.4,26.2-3.1,39.2-5.2c6-1,12-2,18-2.5c7.6-0.6,15.2-0.5,22.7,0.6c7.9,1.1,15.7,2.8,23.1,5.9
	c8.3,3.5,16.2,7.9,23.7,13c2.2,1.5,1.6,1.4,3.5,0.1c3.7-2.5,7.6-4.8,11.4-7c12.3-7.1,25.6-11.2,39.7-12.5c9.5-0.9,19-0.4,28.4,1.1
	s18.8,3.1,28.2,4.3c7,0.9,13.9,1.8,20.9,2.5C390,180,399.2,181,408.5,180.7z"/>
<path class="st1" d="M93.2,120.6c0-7.5,0-15,0-22.5c0-0.6,0-1.3,0-1.9c0.3-3.1,2.5-5.3,5.7-5.3c4.4-0.1,8.7-0.1,13.1,0
	c4.3,0,8.1,1.5,11.5,4.2c6.7,5.5,7.9,15.2,2.6,22.2c-1.3,1.7-1.3,1.7-0.1,3.3c4.7,6.5,5.5,13.4,2,20.6c-3.5,7.1-9.5,10.7-17.5,10.9
	c-3.1,0-6.2,0-9.3,0c-5.3,0-7.9-2.7-7.9-8C93.2,136.1,93.2,128.4,93.2,120.6z M107.6,132.2L107.6,132.2c0,1.3,0,2.5,0,3.8
	c0,1.8,0.3,2,2.1,2c3.1-0.1,5.7-2.9,5.4-5.8c-0.3-3.1-3.6-5.8-6.5-5.4c-0.7,0.1-1,0.4-0.9,1.1C107.6,129.3,107.6,130.7,107.6,132.2z
	 M107.6,108.8L107.6,108.8c0,1,0,2.1,0,3.1c0,1.8,0.5,2.2,2.3,2c2.5-0.4,4.4-2.7,4.3-5c-0.2-2.5-2.9-4.9-5.4-4.8
	c-0.8,0-1.2,0.3-1.2,1.2C107.6,106.4,107.6,107.6,107.6,108.8z"/>
<path class="st1" d="M161.5,91.6c-6.6-3.3-13.2-3-19.3,1.3c-5,3.5-7.1,8.7-7.1,14.7c0,4.4,0,8.8,0,13.2c0,5.4-0.2,10.7,0.2,16
	c0.3,4.3,2.1,7.9,5.2,10.8c5.8,5.4,12.6,6.2,19.8,3.5c6.7-2.5,10.9-9.1,10.9-16.5c0-9,0-17.9,0-26.9
	C171.2,100.4,168,94.9,161.5,91.6z M156.7,137.8c0,2-1.6,3.6-3.6,3.6s-3.6-1.6-3.6-3.6v-33.7c0-2,1.6-3.6,3.6-3.6s3.6,1.6,3.6,3.6
	V137.8z"/>
<path class="st1" d="M390.7,89.6c10.4-0.1,15.7,7,17.2,13.2c1.1,4.2-1.3,7.4-4.5,8.6c-3.4,1.3-7.3-0.2-9-3.5
	c-0.5-0.9-0.7-1.9-1.1-2.9c-0.8-2.2-2.7-2.7-4.5-1.1c-1.4,1.3-1.7,3.5-0.5,5.3c0.5,0.8,1.2,1.3,1.9,1.8c4,3.2,7.9,6.4,11.7,9.9
	c8.2,7.5,8.3,19.4,0.2,27c-3.7,3.4-8.3,4.4-13.1,4.2c-10.8-0.5-16.3-8.9-17-16.9c-0.1-1.3-0.1-2.6,0.4-3.8c0.9-2.7,3.3-4.5,6.1-4.6
	c3-0.1,5.5,1.6,6.5,4.3c0.7,1.8,1.2,3.6,1.9,5.4c0.7,1.7,1.9,2.4,3.3,2.2c1.5-0.2,2.4-1.1,2.8-2.9c0.4-1.8,0.2-3.5-0.9-5
	c-0.9-1.4-2.1-2.6-3.6-3.5c-3.4-2.2-6.5-4.9-9.4-7.8c-4-3.9-5.3-8.8-5.3-14.2c0-1.8,0.4-3.5,0.9-5.2c1.6-5,4.9-8.3,9.9-9.8
	C386.7,89.9,388.7,89.7,390.7,89.6z"/>
<path class="st1" d="M351.3,89.6c10.1-0.1,15.3,6.6,17,12.5c1.1,3.7-0.3,7.2-3.4,8.9c-3.8,2.1-8.5,0.4-10.2-3.6
	c-0.3-0.8-0.5-1.7-0.8-2.5c-0.8-2-2.5-2.5-4.2-1.2c-1.8,1.4-2.1,3.9-0.6,5.7c0.5,0.6,1.2,1.1,1.8,1.6c4.1,3.3,8.2,6.6,12,10.3
	c7.9,7.5,7.6,20-0.6,26.9c-10,8.4-26.2,2.9-29.2-10c-0.4-1.6-0.6-3.1-0.5-4.8c0.1-3.5,2.4-6.2,5.7-6.7c3.5-0.5,6.5,1.5,7.5,4.9
	c0.5,1.6,1,3.2,1.7,4.7c0.7,1.8,2,2.5,3.5,2.3s2.5-1.3,2.8-3.2c0.6-3.5-1.2-5.9-3.8-7.7c-3.6-2.4-6.8-5.2-10-8.1
	c-5.1-4.7-7.1-14-3.7-21.6c1.8-4,5-6.6,9.2-7.8C347.3,89.9,349.3,89.7,351.3,89.6z"/>
<path class="st1" d="M296.8,121.3c0-7,0-13.9,0-20.9c0-0.8,0-1.6,0-2.4c0.2-4.5,3.2-7.4,7.7-7.5c2.2,0,4.3,0,6.5,0
	c0.6,0,4.3,0,5.2,0c2.2,0,4.5-0.1,6.7,0c3.3,0.1,5.8,2,6.7,4.8c1.4,4.4-1.7,8.8-6.3,9c-3.4,0.1-6.7,0-10.1,0c-1.9,0-1.9,0-1.9,1.8
	c0,1.9,0,3.8,0,5.8c0,1.8,0,1.8,1.9,1.8c2.1,0,4.2,0,6.2-0.1c2.9-0.2,5.2,1.1,6.6,3.3c2.8,4.1-0.6,10.2-5.7,10.5
	c-2.3,0.1-4.6,0-6.9,0c-2.1,0-2.1,0-2.1,2.1c0,2.2,0,4.5,0,6.7c0,1,0.4,1.4,1.4,1.4c2.9,0,5.8,0,8.6,0c4.2-0.1,7.4,2.6,7.6,6.6
	c0.2,3.8-2.6,7-6.7,7.3c-2.9,0.2-5.7,0.1-8.6,0.1c-3,0-6.1-0.1-9.1,0c-4.6,0.2-7.9-3.1-7.8-7.7C297,136.5,296.8,128.9,296.8,121.3z"
	/>
<path class="st1" d="M264,91.5c0.2-0.1,0.3-0.3,0.5-0.4c2.6-1.1,5.2-1.4,7.9,0c0.2,0.3,0.4,0.7,0.7,1c1.6,1.4,1.9,3.2,1.9,5.2
	c0,11.9,0,23.8,0,35.7c0,1,0,1.9,0,2.9c0,2.6,0,2.6,2.6,2.6c1.9,0,3.8,0.1,5.7,0c2.3-0.1,4.6,0.2,6.8,1.1c0.3,0.7,0.8,1.2,1.4,1.4
	c1.1,2.5,1.5,5,0.1,7.5c-1.7,1.9-3.8,2.6-6.4,2.6c-5.4-0.1-10.8-0.1-16.3,0c-1.5,0-3-0.1-4.5-0.7c-0.4-0.9-1-1.5-1.9-1.9
	c-0.7-1.9-0.7-3.9-0.7-5.9c0-14.3,0-28.7,0-43c0-2.4,0-4.8,1.2-7c0.1-0.2,0.3-0.3,0.4-0.5C263.7,91.8,263.9,91.7,264,91.5z"/>
<path class="st1" d="M251.4,124.9c-0.2,0.2-0.3,0.3-0.5,0.5c-0.8,0.5-1.6,1-2.4,1.4c-3,0-6.1,0.1-9.1,0.1c-2.1,0-2.3,0.2-2.3,2.4
	c0,2.2,0,4.5,0,6.7c0,2.1,0.2,2.3,2.3,2.4c3.4,0,6.7,0,10.1,0c0.5,0,1,0.1,1.4,0.1c0.6,0.3,1.2,0.7,1.9,1c0.2,0.1,0.3,0.3,0.5,0.4
	c0.2,0.6,0.5,1,1,1.4c0.2,0.3,0.3,0.6,0.5,1c0.2,1.5,0.2,3.1,0,4.6c-0.2,0.3-0.3,0.6-0.5,1c-0.2,0.3-0.4,0.6-0.5,0.9
	c-0.1,0.2-0.3,0.3-0.4,0.5c-0.2,0.1-0.3,0.3-0.5,0.4c-0.3,0.2-0.6,0.4-0.9,0.6c-0.8,0.2-1.5,0.6-2.3,0.6c-7.3,0-14.7,0.2-22-0.1
	c-0.8-0.6-1.6-1.2-2.4-1.9c-0.1-0.6-0.5-1.1-0.9-1.5c-0.1-1.1-0.2-2.2-0.2-3.3c0-15.2,0-30.3,0-45.5c0-1.1,0.1-2.2,0.1-3.3
	c0.2-0.3,0.3-0.6,0.5-1c0.2-0.3,0.4-0.6,0.6-0.9c0.1-0.2,0.3-0.3,0.4-0.5c0.2-0.2,0.3-0.3,0.5-0.5c0.3-0.2,0.6-0.4,0.9-0.6
	c1.9-0.7,3.8-1,5.8-1c4.7,0.1,9.4,0.1,14.1,0c1.5,0,2.8,0.3,4.3,0.5c1.8,0.3,2.7,1.8,4,2.9c1.3,3.3,0.6,6.1-1.9,8.5
	c-0.2,0.1-0.4,0.3-0.5,0.4c-1.5,0.6-3.1,0.7-4.7,0.7c-2.9,0-5.9,0-8.8,0c-1.9,0-2.1,0.2-2.1,2c0,2.1,0,4.3,0,6.4c0,1.8,0.3,2,2.1,2
	c2,0,4,0.1,6,0c1.6-0.1,3.2,0.1,4.7,0.7c0.2,0.1,0.4,0.2,0.6,0.4c0.1,0.1,0.3,0.3,0.4,0.4c0.1,0.2,0.3,0.4,0.4,0.6
	c1.5,2.6,1.8,5.2,0.4,8C251.6,124.6,251.5,124.7,251.4,124.9z"/>
<path class="st1" d="M203.1,92c0.2-0.2,0.3-0.3,0.5-0.5c0.2-0.1,0.3-0.3,0.5-0.4c0.3-0.2,0.6-0.3,0.9-0.5c2.4-0.8,4.7-0.4,7,0.5
	c0.2,0.1,0.3,0.3,0.5,0.4c0.2,0.2,0.3,0.3,0.5,0.5s0.3,0.3,0.5,0.5c0.1,0.2,0.3,0.3,0.4,0.5c0.9,2.3,1.1,4.6,1.1,7
	c-0.1,14.2,0,28.4,0,42.7c0,2.4-0.4,4.6-1.6,6.7c-0.4,0.2-0.8,0.5-1,1c-0.3,0.2-0.6,0.4-0.9,0.6c-2.5,1.2-5,1-7.5-0.1
	c-0.2-0.1-0.3-0.3-0.5-0.4c-0.2-0.2-0.3-0.3-0.5-0.5s-0.3-0.3-0.5-0.5c-0.3-0.9-10.3-23.1-11-24.1c-0.2,0.1-0.4,0.2-0.4,0.3
	c-0.1,3.9-0.1,7.8,0.2,11.7c0.3,3.7,0.8,7.5-0.4,11.1c-0.8,0.8-3.2,2.6-3.7,2.8c-1.6,0.7-3.2,0.7-4.8,0c-0.4-0.2-2.7-1.6-3.3-2.3
	c-0.1-0.2-0.3-0.4-0.4-0.5c-0.6-1.5-0.7-3.1-0.7-4.7c0-15.2,0-30.4,0-45.5c0-1.6,0.1-3.2,0.7-4.7c0.1-0.2,0.3-0.4,0.4-0.5
	c2.5-2.8,5.5-3.4,8.9-2.3c0.3,0.2,0.6,0.3,0.9,0.5c0.2,0.1,0.3,0.3,0.5,0.4c0.2,0.2,0.3,0.3,0.5,0.5c0.1,0.2,0.3,0.3,0.4,0.5
	c0.2,0.3,0.4,0.6,0.6,0.9c0.2,0.3,0.3,0.6,0.5,1c0.7,2.7,2,5.2,3.1,7.7c1,2.3,5.4,13.3,6.4,14.2c0.1-1.1,0.2-11.5,0.1-16
	c0-2.5,0.1-4.9,1.1-7.3c0.1-0.2,0.3-0.3,0.4-0.5C202.8,92.3,202.9,92.1,203.1,92z"/>
</svg>
